<svg version="1.1" xmlns="http://www.w3.org/2000/svg" viewBox="-2329.344061279297 -1572.7360260009766 6152.960382080078 2390.784063720703"><desc>Created with Snap</desc><defs></defs><g><g transform="matrix(37.008,0,0,37.008,-2022.1441,-1265.536)"><g><path d="M5.6,37.5H11c0.6,0,1-0.4,1-1v-0.3c1.2,0.1,2.4,0.4,3.5,1c1.7,0.8,3.6,1.2,5.4,1.2h2.3c2,0,3.7-1.6,3.7-3.6   c0-0.2,0-0.4,0-0.5c0.5-0.3,1-0.7,1.3-1.1c0.4-0.6,0.6-1.4,0.6-2.1c0-0.1,0-0.3,0-0.4c0.2-0.1,0.4-0.3,0.5-0.5   c0.5-0.6,0.8-1.5,0.6-2.3c-0.1-0.6-0.4-1-0.7-1.4c0.3-0.3,0.4-0.7,0.5-1.2c0.1-0.8-0.1-1.6-0.6-2.3c-0.5-0.6-1.3-1-2.1-1h-2.5   c0,0-0.2,0-0.6,0.1c-0.3,0-0.8,0.1-1.4,0.1c0.6-2.2,0.3-4.4,0-6.4l0-0.2c-0.2-1.7-1.6-2.9-3.3-2.9c0,0-0.1,0-0.1,0   c-0.9,0-1.7,0.4-2.3,1.1c-0.6,0.7-0.9,1.6-0.8,2.4c0.1,1.2,0,2.5-0.3,3.9c0,0.1-0.1,0.2-0.1,0.3c-0.5,1.6-1.9,2.7-3.6,2.9v-0.3   c0-0.6-0.4-1-1-1H5.6c-0.6,0-1,0.4-1,1v13.3C4.6,37.1,5,37.5,5.6,37.5z M17.6,21.2c0-0.2,0.1-0.3,0.1-0.5c0.3-1.6,0.5-3.1,0.4-4.5   c0-0.4,0.1-0.7,0.3-1c0.2-0.2,0.4-0.4,0.9-0.4c0.6,0,1.2,0.5,1.3,1.2l0,0.2c0.3,2.3,0.6,4.6-0.4,6.8c-0.2,0.3-0.1,0.7,0.1,1   s0.6,0.5,0.9,0.4c1.5-0.1,2.5-0.3,3.1-0.3c0.2,0,0.4,0,0.4,0h2.5c0.2,0,0.4,0.1,0.6,0.3c0.1,0.1,0.2,0.3,0.2,0.6   c-0.1,0.4-0.4,0.6-0.9,0.6c-0.6,0-1,0.4-1,1s0.4,1,1,1h0.2c0.4,0,0.8,0.3,0.9,0.6c0.1,0.3-0.1,0.6-0.2,0.7   c-0.2,0.2-0.4,0.3-0.6,0.3c-0.6,0-1,0.4-1,1c0,0.4,0.3,0.8,0.6,0.9c0,0.3-0.1,0.6-0.3,1c-0.2,0.2-1,0.7-1.2,0.7c0,0,0,0,0,0   s0,0,0,0h0c0,0,0,0,0,0h0c0,0,0,0,0,0c0,0,0,0,0,0h0c-0.5,0-1,0.5-1,1c0,0.4,0.3,0.8,0.7,1c0,0,0,0,0,0c0,0.9-0.8,1.6-1.7,1.6H21   c-1.6,0-3.1-0.3-4.7-1.1c-1.3-0.6-2.8-1-4.3-1.1v-8.7C14.6,25.3,16.9,23.6,17.6,21.2z M6.6,24.2H10v0.3v10.6v0.4H6.6V24.2z" fill="#e9640c" style=""></path><path d="M47,0H1C0.4,0,0,0.4,0,1v46c0,0.6,0.4,1,1,1h46c0.6,0,1-0.4,1-1V1C48,0.4,47.6,0,47,0z M46,46H2V10h44V46z M46,8H2V2h44V8z   " fill="#e9640c" style=""></path><path d="M42.9,4h-1.5c-0.6,0-1,0.4-1,1s0.4,1,1,1h1.5c0.6,0,1-0.4,1-1S43.4,4,42.9,4z" fill="#e9640c" style=""></path><path d="M37.1,4h-1.5c-0.6,0-1,0.4-1,1s0.4,1,1,1h1.5c0.6,0,1-0.4,1-1S37.6,4,37.1,4z" fill="#e9640c" style=""></path><path d="M31.2,4h-1.5c-0.6,0-1,0.4-1,1s0.4,1,1,1h1.5c0.6,0,1-0.4,1-1S31.8,4,31.2,4z" fill="#e9640c" style=""></path><path d="M21.2,4H4.8c-0.6,0-1,0.4-1,1s0.4,1,1,1h16.4c0.6,0,1-0.4,1-1S21.8,4,21.2,4z" fill="#e9640c" style=""></path><path d="M33.6,14.8h9.3c0.6,0,1-0.4,1-1s-0.4-1-1-1h-9.3c-0.6,0-1,0.4-1,1S33,14.8,33.6,14.8z" fill="#e9640c" style=""></path><path d="M33.6,21.9h9.3c0.6,0,1-0.4,1-1s-0.4-1-1-1h-9.3c-0.6,0-1,0.4-1,1S33,21.9,33.6,21.9z" fill="#e9640c" style=""></path><path d="M33.6,29h9.3c0.6,0,1-0.4,1-1s-0.4-1-1-1h-9.3c-0.6,0-1,0.4-1,1S33,29,33.6,29z" fill="#e9640c" style=""></path><path d="M33.6,36h9.3c0.6,0,1-0.4,1-1s-0.4-1-1-1h-9.3c-0.6,0-1,0.4-1,1S33,36,33.6,36z" fill="#e9640c" style=""></path><path d="M5.6,43.1h37.3c0.6,0,1-0.4,1-1s-0.4-1-1-1H5.6c-0.6,0-1,0.4-1,1S5,43.1,5.6,43.1z" fill="#e9640c" style=""></path></g><desc>Created with Snap</desc><defs></defs></g><g><g transform="matrix(1.024,0,0,-1.024,0,0)"><path d="M161 246L160 63Q160 39 155 26Q151 13 144 6Q138 -1 129 -3Q121 -4 113 -4Q86 -4 77 8Q69 20 66 62Q64 84 63 126Q62 168 61 226Q61 284 60 354Q60 424 60 502Q60 539 69 577Q78 615 103 646Q129 677 174 696Q220 715 293 715Q344 715 390 704Q436 693 471 666Q506 639 527 594Q548 549 548 482Q548 412 525 366Q502 320 460 293Q418 266 360 255Q302 244 233 244Q216 244 199 244Q182 244 161 246ZM448 484Q448 551 410 585Q373 619 286 619Q253 619 229 613Q206 608 191 594Q176 581 168 558Q161 535 161 500Q161 466 161 422Q161 379 162 341Q185 340 213 340Q242 340 267 340Q297 340 329 344Q362 348 388 362Q414 377 431 405Q448 434 448 484ZM860 507Q917 507 962 489Q1007 472 1038 440Q1070 408 1087 362Q1104 316 1104 259Q1104 196 1084 146Q1065 96 1030 61Q996 26 948 7Q901 -12 845 -12Q784 -12 737 9Q691 30 659 66Q628 102 612 149Q596 196 596 248Q596 305 614 352Q633 400 667 434Q702 469 751 488Q800 507 860 507ZM849 80Q890 80 919 94Q948 109 966 133Q985 157 993 187Q1002 218 1002 251Q1002 285 993 314Q985 344 967 366Q950 388 922 400Q895 413 857 413Q818 413 789 400Q760 387 740 364Q721 342 711 311Q701 280 701 244Q701 171 738 125Q776 80 849 80ZM1369 522Q1390 522 1422 518Q1454 515 1483 505Q1512 496 1533 479Q1554 462 1554 436Q1554 421 1545 410Q1537 399 1519 399Q1506 399 1489 403Q1473 407 1453 412Q1434 418 1411 422Q1389 426 1364 426Q1322 426 1295 413Q1269 400 1269 372Q1269 356 1278 345Q1288 334 1304 325Q1321 317 1343 311Q1366 305 1391 299Q1422 291 1452 281Q1483 271 1507 253Q1531 236 1546 209Q1561 183 1561 144Q1561 70 1505 26Q1449 -17 1340 -17Q1316 -17 1283 -14Q1250 -10 1221 -1Q1192 9 1171 26Q1151 44 1151 73Q1151 93 1160 103Q1170 114 1184 114Q1195 114 1207 107Q1219 100 1236 92Q1253 84 1277 77Q1301 70 1336 70Q1349 70 1370 71Q1391 73 1411 80Q1432 87 1446 99Q1461 112 1461 135Q1461 153 1451 165Q1441 178 1424 187Q1407 196 1384 202Q1362 209 1337 216Q1308 224 1278 234Q1249 244 1225 260Q1201 276 1186 300Q1171 325 1171 361Q1171 395 1185 424Q1199 454 1225 476Q1251 498 1287 510Q1324 522 1369 522ZM1739 65Q1736 128 1735 214Q1735 301 1735 411Q1725 410 1711 410Q1698 410 1690 410Q1672 410 1657 411Q1643 412 1632 417Q1621 422 1615 431Q1609 441 1609 458Q1609 506 1681 506Q1692 506 1708 506Q1724 506 1735 504Q1735 557 1737 589Q1739 621 1744 638Q1750 656 1759 661Q1769 667 1784 667Q1800 667 1810 656Q1820 645 1825 628Q1831 611 1832 590Q1834 569 1834 549Q1834 535 1833 523Q1833 512 1833 503Q1847 507 1862 507Q1877 508 1891 508Q1928 508 1948 496Q1968 485 1968 459Q1968 443 1961 433Q1954 424 1942 419Q1931 414 1915 412Q1900 411 1882 411Q1872 411 1859 411Q1846 411 1835 413Q1835 360 1835 316Q1835 272 1834 231Q1833 191 1832 151Q1831 111 1829 66Q1828 42 1824 29Q1821 16 1815 9Q1809 2 1801 0Q1794 -1 1784 -1Q1766 -1 1753 11Q1741 24 1739 65ZM2317 170Q2271 271 2235 365Q2200 460 2175 534Q2152 410 2136 284Q2121 158 2097 43Q2091 17 2075 8Q2059 0 2048 0Q2030 0 2019 11Q2009 22 2009 39Q2009 62 2014 109Q2020 157 2028 217Q2037 277 2048 343Q2059 409 2070 470Q2082 532 2092 582Q2103 632 2111 659Q2124 705 2164 705Q2188 705 2205 681Q2222 658 2241 609Q2261 561 2288 487Q2316 413 2360 313Q2403 413 2429 486Q2456 560 2474 608Q2493 657 2510 680Q2527 704 2552 704Q2575 704 2587 692Q2599 681 2605 658Q2612 630 2622 580Q2632 531 2643 470Q2655 410 2666 344Q2677 278 2686 218Q2695 158 2700 109Q2706 61 2706 35Q2706 19 2695 9Q2684 0 2667 0Q2656 0 2640 8Q2624 17 2618 43Q2606 100 2596 161Q2587 222 2578 284Q2570 347 2562 409Q2554 472 2545 534Q2532 494 2515 446Q2498 398 2479 349Q2460 301 2440 254Q2420 207 2401 169Q2394 156 2382 149Q2371 143 2359 143Q2346 143 2334 149Q2323 156 2317 170ZM3018 184Q2983 184 2944 189Q2906 195 2861 213Q2870 152 2911 121Q2953 90 3031 90Q3059 90 3081 93Q3104 97 3121 101Q3138 106 3151 109Q3164 113 3175 113Q3189 113 3202 104Q3215 96 3215 76Q3215 51 3194 35Q3174 19 3144 9Q3115 0 3082 -4Q3049 -7 3024 -7Q2965 -7 2915 9Q2866 25 2830 57Q2794 90 2774 138Q2754 186 2754 250Q2754 312 2773 360Q2793 408 2827 441Q2861 474 2907 491Q2954 508 3008 508Q3050 508 3089 497Q3129 486 3159 464Q3190 442 3208 408Q3227 375 3227 330Q3227 290 3212 262Q3197 234 3169 217Q3142 200 3103 192Q3065 184 3018 184ZM3011 416Q2984 416 2959 409Q2934 403 2913 388Q2893 374 2879 350Q2865 327 2860 292Q2898 275 2934 268Q2970 262 3010 262Q3069 262 3097 276Q3126 291 3126 329Q3126 364 3099 390Q3073 416 3011 416ZM3328 688Q3330 729 3342 741Q3354 754 3372 754Q3382 754 3389 752Q3397 751 3403 744Q3409 737 3412 724Q3416 711 3417 687Q3419 635 3421 585Q3423 535 3423 485Q3423 460 3422 440Q3422 420 3421 400Q3421 380 3419 359Q3418 338 3417 312Q3416 292 3412 279Q3408 267 3402 260Q3396 253 3388 250Q3381 248 3372 248Q3354 248 3344 258Q3334 269 3329 296Q3325 323 3324 369Q3323 415 3323 486Q3323 543 3324 597Q3326 651 3328 688ZM3372 110Q3395 110 3414 92Q3434 74 3434 49Q3434 25 3414 7Q3394 -10 3369 -10Q3348 -10 3329 7Q3311 25 3311 51Q3311 75 3329 92Q3348 110 3372 110Z" fill="#8a0059" style=""></path></g></g></g></svg>